<svg width="20" height="21" viewBox="0 0 20 21" fill="none" xmlns="http://www.w3.org/2000/svg">
<path d="M3.12104 16.3037C5.15267 15.1554 7.4998 14.5 10 14.5C12.5002 14.5 14.8473 15.1554 16.879 16.3037M13 8.5C13 10.1569 11.6569 11.5 10 11.5C8.34315 11.5 7 10.1569 7 8.5C7 6.84315 8.34315 5.5 10 5.5C11.6569 5.5 13 6.84315 13 8.5ZM19 10.5C19 15.4706 14.9706 19.5 10 19.5C5.02944 19.5 1 15.4706 1 10.5C1 5.52944 5.02944 1.5 10 1.5C14.9706 1.5 19 5.52944 19 10.5Z" stroke="#161616" stroke-width="2" stroke-linecap="round" stroke-linejoin="round"/>
</svg>
